<svg xmlns="http://www.w3.org/2000/svg"  viewBox="0 0 64 64" width="64px" height="64px"><polygon fill="#acb7d0" points="45,41 45,53 17,53 17,41 12,41 12,58 50,58 50,41"/><rect width="4" height="20" x="29" y="36" fill="#acb7d0" transform="rotate(-90 31 46)"/><rect width="4" height="20" x="52.5" y="5.921" fill="#f283a5" transform="rotate(-13.999 54.506 15.922)"/><rect width="4" height="20" x="45.926" y="8.379" fill="#f7a1c8" transform="rotate(-27 47.925 18.379)"/><rect width="4" height="20" x="40.074" y="12.253" fill="#efc88e" transform="rotate(-40.002 42.072 22.253)"/><rect width="4" height="20" x="35.242" y="17.344" fill="#f9dd8f" transform="rotate(-52.999 37.244 27.345)"/><rect width="4" height="20" x="31.68" y="23.391" fill="#ffeb9b" transform="rotate(-66.001 33.681 33.393)"/><rect width="4" height="20" x="29.57" y="30.085" fill="#f9e3ae" transform="rotate(-79 31.57 40.086)"/><polygon fill="none" stroke="#8d6c9f" stroke-linecap="round" stroke-linejoin="round" stroke-miterlimit="10" stroke-width="2" points="45,41 45,53 17,53 17,41 12,41 12,58 50,58 50,41"/><rect width="4" height="20" x="29" y="36" fill="none" stroke="#8d6c9f" stroke-linecap="round" stroke-linejoin="round" stroke-miterlimit="10" stroke-width="2" transform="rotate(-90 31 46)"/><rect width="4" height="20" x="29" y="36" fill="none" stroke="#8d6c9f" stroke-linecap="round" stroke-linejoin="round" stroke-miterlimit="10" stroke-width="2" transform="rotate(-90 31 46)"/><rect width="4" height="20" x="29" y="36" fill="none" stroke="#8d6c9f" stroke-linecap="round" stroke-linejoin="round" stroke-miterlimit="10" stroke-width="2" transform="rotate(-90 31 46)"/><rect width="4" height="20" x="52.5" y="5.921" fill="none" stroke="#8d6c9f" stroke-linecap="round" stroke-linejoin="round" stroke-miterlimit="10" stroke-width="2" transform="rotate(-13.999 54.506 15.922)"/><rect width="4" height="20" x="45.926" y="8.379" fill="none" stroke="#8d6c9f" stroke-linecap="round" stroke-linejoin="round" stroke-miterlimit="10" stroke-width="2" transform="rotate(-27 47.925 18.379)"/><rect width="4" height="20" x="45.926" y="8.379" fill="none" stroke="#8d6c9f" stroke-linecap="round" stroke-linejoin="round" stroke-miterlimit="10" stroke-width="2" transform="rotate(-27 47.925 18.379)"/><rect width="4" height="20" x="45.926" y="8.379" fill="none" stroke="#8d6c9f" stroke-linecap="round" stroke-linejoin="round" stroke-miterlimit="10" stroke-width="2" transform="rotate(-27 47.925 18.379)"/><rect width="4" height="20" x="40.074" y="12.253" fill="none" stroke="#8d6c9f" stroke-linecap="round" stroke-linejoin="round" stroke-miterlimit="10" stroke-width="2" transform="rotate(-40.002 42.072 22.253)"/><rect width="4" height="20" x="40.074" y="12.253" fill="none" stroke="#8d6c9f" stroke-linecap="round" stroke-linejoin="round" stroke-miterlimit="10" stroke-width="2" transform="rotate(-40.002 42.072 22.253)"/><rect width="4" height="20" x="40.074" y="12.253" fill="none" stroke="#8d6c9f" stroke-linecap="round" stroke-linejoin="round" stroke-miterlimit="10" stroke-width="2" transform="rotate(-40.002 42.072 22.253)"/><rect width="4" height="20" x="35.242" y="17.344" fill="none" stroke="#8d6c9f" stroke-linecap="round" stroke-linejoin="round" stroke-miterlimit="10" stroke-width="2" transform="rotate(-52.999 37.244 27.345)"/><rect width="4" height="20" x="35.242" y="17.344" fill="none" stroke="#8d6c9f" stroke-linecap="round" stroke-linejoin="round" stroke-miterlimit="10" stroke-width="2" transform="rotate(-52.999 37.244 27.345)"/><rect width="4" height="20" x="35.242" y="17.344" fill="none" stroke="#8d6c9f" stroke-linecap="round" stroke-linejoin="round" stroke-miterlimit="10" stroke-width="2" transform="rotate(-52.999 37.244 27.345)"/><rect width="4" height="20" x="31.68" y="23.391" fill="none" stroke="#8d6c9f" stroke-linecap="round" stroke-linejoin="round" stroke-miterlimit="10" stroke-width="2" transform="rotate(-66.001 33.681 33.393)"/><rect width="4" height="20" x="31.68" y="23.391" fill="none" stroke="#8d6c9f" stroke-linecap="round" stroke-linejoin="round" stroke-miterlimit="10" stroke-width="2" transform="rotate(-66.001 33.681 33.393)"/><rect width="4" height="20" x="31.68" y="23.391" fill="none" stroke="#8d6c9f" stroke-linecap="round" stroke-linejoin="round" stroke-miterlimit="10" stroke-width="2" transform="rotate(-66.001 33.681 33.393)"/><rect width="4" height="20" x="29.57" y="30.085" fill="none" stroke="#8d6c9f" stroke-linecap="round" stroke-linejoin="round" stroke-miterlimit="10" stroke-width="2" transform="rotate(-79 31.57 40.086)"/><rect width="4" height="20" x="29.57" y="30.085" fill="none" stroke="#8d6c9f" stroke-linecap="round" stroke-linejoin="round" stroke-miterlimit="10" stroke-width="2" transform="rotate(-79 31.57 40.086)"/><rect width="4" height="20" x="29.57" y="30.085" fill="none" stroke="#8d6c9f" stroke-linecap="round" stroke-linejoin="round" stroke-miterlimit="10" stroke-width="2" transform="rotate(-79 31.57 40.086)"/><line x1="18.731" x2="20.57" y1="26.252" y2="27.041" fill="none" stroke="#8d6c9f" stroke-linecap="round" stroke-miterlimit="10" stroke-width="2"/><line x1="20.96" x2="22.694" y1="21.789" y2="22.784" fill="none" stroke="#8d6c9f" stroke-linecap="round" stroke-miterlimit="10" stroke-width="2"/><line x1="23.675" x2="25.283" y1="17.604" y2="18.792" fill="none" stroke="#8d6c9f" stroke-linecap="round" stroke-miterlimit="10" stroke-width="2"/><line x1="26.841" x2="28.303" y1="13.747" y2="15.112" fill="none" stroke="#8d6c9f" stroke-linecap="round" stroke-miterlimit="10" stroke-width="2"/><line x1="30.472" x2="31.768" y1="10.323" y2="11.847" fill="none" stroke="#8d6c9f" stroke-linecap="round" stroke-miterlimit="10" stroke-width="2"/><line x1="34.461" x2="35.573" y1="7.328" y2="8.99" fill="none" stroke="#8d6c9f" stroke-linecap="round" stroke-miterlimit="10" stroke-width="2"/><line x1="38.761" x2="39.674" y1="4.799" y2="6.578" fill="none" stroke="#8d6c9f" stroke-linecap="round" stroke-miterlimit="10" stroke-width="2"/></svg>